HIERARCHY
ROOT hip
{
	OFFSET 0.000000 0.000000 0.000000
	CHANNELS 6 Xposition Yposition Zposition Xrotation Zrotation Yrotation 
	JOINT abdomen
	{
		OFFSET 0.000000 3.422050 0.000000
		CHANNELS 3 Xrotation Zrotation Yrotation 
		JOINT chest
		{
			OFFSET 0.000000 8.486693 -0.684411
			CHANNELS 3 Xrotation Zrotation Yrotation 
			JOINT neck
			{
				OFFSET 0.000000 10.266162 -0.273764
				CHANNELS 3 Xrotation Zrotation Yrotation 
				JOINT head
				{
					OFFSET 0.000000 3.148285 0.000000
					CHANNELS 3 Xrotation Zrotation Yrotation 
					End Site
					{
						OFFSET 0.000000 3.148289 0.000000
					}
				}
			}
			JOINT lCollar
			{
				OFFSET 3.422053 6.707223 -0.821293
				CHANNELS 3 Yrotation Zrotation Xrotation 
				JOINT lShldr
				{
					OFFSET 3.285171 0.000000 0.000000
					CHANNELS 3 Zrotation Yrotation Xrotation 
					JOINT lForeArm
					{
						OFFSET 10.129278 0.000000 0.000000
						CHANNELS 3 Yrotation Zrotation Xrotation 
						JOINT lHand
						{
							OFFSET 8.486692 0.000000 0.000000
							CHANNELS 3 Zrotation Yrotation Xrotation 
							End Site
							{
								OFFSET 4.106464 0.000000 0.000000
							}
						}
					}
				}
			}
			JOINT rCollar
			{
				OFFSET -3.558935 6.707223 -0.821293
				CHANNELS 3 Yrotation Zrotation Xrotation 
				JOINT rShldr
				{
					OFFSET -3.148289 0.000000 0.000000
					CHANNELS 3 Zrotation Yrotation Xrotation 
					JOINT rForeArm
					{
						OFFSET -10.266159 0.000000 0.000000
						CHANNELS 3 Yrotation Zrotation Xrotation 
						JOINT rHand
						{
							OFFSET -8.349810 0.000000 0.000000
							CHANNELS 3 Zrotation Yrotation Xrotation 
							End Site
							{
								OFFSET -4.106464 0.000000 0.000000
							}
						}
					}
				}
			}
		}
	}
	JOINT lThigh
	{
		OFFSET 5.338403 -1.642589 1.368821
		CHANNELS 3 Xrotation Zrotation Yrotation 
		JOINT lShin
		{
			OFFSET -2.053232 -20.121670 0.000000
			CHANNELS 3 Xrotation Zrotation Yrotation 
			JOINT lFoot
			{
				OFFSET 0.000000 -19.300380 -1.231939
				CHANNELS 3 Xrotation Yrotation Zrotation 
				End Site
				{
					OFFSET 0.000000 -2.463878 4.653993
				}
			}
		}
	}
	JOINT rThigh
	{
		OFFSET -5.338403 -1.642589 1.368821
		CHANNELS 3 Xrotation Zrotation Yrotation 
		JOINT rShin
		{
			OFFSET 2.053232 -20.121670 0.000000
			CHANNELS 3 Xrotation Zrotation Yrotation 
			JOINT rFoot
			{
				OFFSET 0.000000 -19.300380 -1.231939
				CHANNELS 3 Xrotation Yrotation Zrotation 
				End Site
				{
					OFFSET 0.000000 -2.463878 4.653993
				}
			}
		}
	}
}
MOTION
Frames: 20
Frame Time: 0.033264
0.000000 43.528500 0.000000 0.000000 0.000000 0.000000 0.000000 0.000000 0.000000 0.000000 0.000000 0.000000 0.000000 0.000000 0.000000 0.000000 0.000000 0.000000 0.000000 0.000000 0.000000 0.000000 0.000000 0.000000 0.000000 0.000000 0.000000 0.000000 0.000000 0.000000 0.000000 0.000000 0.000000 0.000000 0.000000 0.000000 0.000000 0.000000 0.000000 0.000000 0.000000 0.000000 0.000000 0.000000 0.000000 0.000000 0.000000 0.000000 0.000000 0.000000 0.000000 0.000000 0.000000 0.000000 0.000000 0.000000 0.000000 0.000000 0.000000 0.000000 
0.000000 4.831345 0.000000 -90.001877 0.000000 0.000000 18.586349 0.014401 -0.088005 7.592443 0.037091 -0.426882 17.998348 0.000000 0.000000 8.998567 0.000000 0.000000 10.497555 1.329185 0.343242 -72.105865 -11.745770 -7.403369 -68.858849 6.380286 -7.503326 -50.003487 0.197797 -26.001692 5.868195 -6.549128 0.979658 66.283768 28.425364 -8.688719 75.514389 -11.498594 -7.012167 72.998596 -0.199310 -11.802655 -134.900635 27.019320 1.043212 10.233138 -1.965097 -0.072379 13.400978 2.310024 5.480430 -141.922729 -12.990618 -0.318902 40.370846 2.326321 0.164064 19.032698 -1.776397 -5.014713 
0.000000 4.831345 0.000000 -90.001877 0.000000 0.000000 18.278374 0.014165 -0.088047 8.511583 0.031672 -0.427394 17.729120 0.000000 0.000000 8.563277 0.000000 0.000000 10.402015 1.848616 0.037748 -72.316261 -11.775389 -7.336300 -69.486244 6.564568 -7.422955 -49.628143 -0.213041 -26.168360 5.630823 -7.190979 0.542931 66.597290 28.464113 -8.500225 75.867737 -11.423049 -6.941463 72.647141 0.127818 -11.831419 -134.685577 26.797012 1.006164 9.882298 -2.094476 -0.066991 13.708935 2.311236 5.478520 -141.922729 -12.990618 -0.318902 39.923588 2.245890 0.141506 19.032698 -1.776397 -5.014713 
0.000000 4.831345 0.000000 -90.001877 0.000000 0.000000 17.970375 0.013928 -0.088088 9.431375 0.026259 -0.427994 17.459738 0.000000 0.000000 8.127638 0.000000 0.000000 10.309185 2.368711 -0.267077 -72.526703 -11.804765 -7.269107 -70.114372 6.748031 -7.340498 -49.251499 -0.622893 -26.337770 5.388040 -7.831350 0.102644 66.911095 28.501953 -8.311403 76.220917 -11.347070 -6.871246 72.295441 0.454827 -11.862195 -134.470764 26.574806 0.968251 9.531377 -2.223834 -0.060808 14.016914 2.312437 5.476603 -141.922729 -12.990618 -0.318902 39.476307 2.165271 0.119575 19.032698 -1.776397 -5.014713 
0.000000 4.831345 0.000000 -90.001877 0.000000 0.000000 17.662357 0.013692 -0.088127 10.351703 0.020853 -0.428681 17.190207 0.000000 0.000000 7.691663 0.000000 0.000000 10.219067 2.889426 -0.571262 -72.737228 -11.833901 -7.201799 -70.743164 6.930634 -7.255961 -48.873505 -1.031716 -26.509928 5.139790 -8.470119 -0.341281 67.225159 28.538887 -8.122280 76.573952 -11.270659 -6.801521 71.943504 0.781693 -11.894986 -134.256149 26.352707 0.929480 9.180373 -2.353164 -0.053832 14.324913 2.313628 5.474679 -141.922729 -12.990618 -0.318902 39.029003 2.084471 0.098272 19.032698 -1.776397 -5.014713 
0.000000 4.831345 0.000000 -90.001877 0.000000 0.000000 17.354319 0.013455 -0.088166 11.272446 0.015457 -0.429455 16.920528 0.000000 0.000000 7.255363 0.000000 0.000000 10.131655 3.410714 -0.874840 -72.947784 -11.862792 -7.134369 -71.372635 7.112348 -7.169360 -48.494171 -1.439464 -26.684845 4.886022 -9.107175 -0.788921 67.539490 28.574913 -7.932852 76.926811 -11.193824 -6.732291 71.591293 1.108391 -11.929793 -134.041824 26.130741 0.889854 8.829295 -2.482459 -0.046061 14.632928 2.314809 5.472748 -141.922714 -12.990618 -0.318902 38.581722 2.003500 0.077600 19.032698 -1.776397 -5.014713 
0.000000 4.831345 0.000000 -90.001877 0.000000 0.000000 17.046276 0.013218 -0.088203 12.193486 0.010071 -0.430316 16.650703 0.000000 0.000000 6.818748 0.000000 0.000000 10.046953 3.932533 -1.177841 -73.158432 -11.891445 -7.066825 -72.002724 7.293133 -7.080700 -48.113453 -1.846097 -26.862513 4.626680 -9.742398 -1.240356 67.854088 28.610029 -7.743135 77.279510 -11.116570 -6.663560 71.238815 1.434899 -11.966617 -133.827682 25.908886 0.849378 8.478146 -2.611710 -0.037497 14.940953 2.315980 5.470811 -141.922729 -12.990619 -0.318902 38.134457 1.922363 0.057561 19.032698 -1.776397 -5.014713 
0.000000 4.831345 0.000000 -90.001877 0.000000 0.000000 16.738224 0.012981 -0.088239 13.114704 0.004700 -0.431263 16.380741 0.000000 0.000000 6.381833 0.000000 0.000000 9.964956 4.454834 -1.480295 -73.369118 -11.919853 -6.999166 -72.633430 7.472960 -6.989998 -47.731354 -2.251570 -27.042940 4.361710 -10.375669 -1.695663 68.168892 28.644218 -7.553130 77.632019 -11.038898 -6.595331 70.886032 1.761190 -12.005453 -133.613770 25.687170 0.808057 8.126929 -2.740911 -0.028138 15.248988 2.317140 5.468869 -141.922729 -12.990618 -0.318902 37.687218 1.841069 0.038156 19.032698 -1.776397 -5.014713 
0.000000 4.831345 0.000000 -90.001877 0.000000 0.000000 16.430170 0.012744 -0.088273 14.035984 -0.000657 -0.432297 16.110640 0.000000 0.000000 5.944630 0.000000 0.000000 9.885662 4.977576 -1.782236 -73.579865 -11.948018 -6.931394 -73.264694 7.651789 -6.897261 -47.347847 -2.655838 -27.226131 4.091056 -11.006868 -2.154920 68.483948 28.677502 -7.362858 77.984344 -10.960817 -6.527607 70.532974 2.087241 -12.046312 -133.400070 25.465591 0.765897 7.775648 -2.870054 -0.017985 15.557025 2.318290 5.466919 -141.922729 -12.990619 -0.318902 37.240005 1.759623 0.019387 19.032698 -1.776397 -5.014713 
0.000000 4.831345 0.000000 -90.001877 0.000000 0.000000 16.122118 0.012507 -0.088307 14.957206 -0.005995 -0.433417 15.840405 0.000000 0.000000 5.507152 0.000000 0.000000 9.809072 5.500710 -2.083694 -73.790657 -11.975935 -6.863506 -73.896492 7.829588 -6.802505 -46.962925 -3.058860 -27.412085 3.814662 -11.635876 -2.618205 68.799217 28.709856 -7.172314 78.336472 -10.882325 -6.460391 70.179604 2.413031 -12.089188 -133.186600 25.244162 0.722898 7.424305 -2.999130 -0.007038 15.865056 2.319429 5.464962 -141.922729 -12.990620 -0.318901 36.792858 1.678036 0.001255 19.032698 -1.776397 -5.014713 
0.000000 4.831345 0.000000 -90.001877 0.000000 0.000000 15.814074 0.012269 -0.088339 15.878247 -0.011314 -0.434622 15.570035 0.000000 0.000000 5.069409 0.000000 0.000000 9.735189 6.024195 -2.384700 -74.001534 -12.003613 -6.795511 -74.528809 8.006326 -6.705746 -46.576576 -3.460594 -27.600811 3.532472 -12.262569 -3.085598 69.114708 28.741301 -6.981518 78.688431 -10.803438 -6.393689 69.825905 2.738530 -12.134080 -132.973328 25.022877 0.679071 7.072911 -3.128133 0.004702 16.173084 2.320557 5.463002 -141.922714 -12.990618 -0.318902 36.345772 1.596314 -0.016237 19.032698 -1.776397 -5.014713 
0.000000 4.831345 0.000000 -90.001862 0.000000 0.000000 15.506042 0.012031 -0.088369 16.798990 -0.016611 -0.435912 15.299535 0.000000 0.000000 4.631416 0.000000 0.000000 9.664008 6.547982 -2.685287 -74.212425 -12.031041 -6.727405 -75.161598 8.181966 -6.606995 -46.188778 -3.860990 -27.792303 3.244429 -12.886829 -3.557176 69.430389 28.771816 -6.790478 79.040169 -10.724151 -6.327501 69.471901 3.063719 -12.180997 -132.760254 24.801754 0.634415 6.721463 -3.257055 0.017235 16.481102 2.321676 5.461033 -141.922729 -12.990618 -0.318902 35.898766 1.514464 -0.033089 19.032698 -1.776397 -5.014713 
0.000000 4.831345 0.000000 -90.001877 0.000000 0.000000 15.198023 0.011793 -0.088399 17.719320 -0.021884 -0.437287 15.028913 0.000000 0.000000 4.193185 0.000000 0.000000 9.595533 7.072029 -2.985487 -74.423386 -12.058226 -6.659191 -75.794830 8.356475 -6.506268 -45.799526 -4.260015 -27.986576 2.950478 -13.508533 -4.033018 69.746269 28.801409 -6.599201 79.391685 -10.644471 -6.261833 69.117546 3.388571 -12.229928 -132.547394 24.580795 0.588938 6.369967 -3.385888 0.030560 16.789104 2.322783 5.459061 -141.922729 -12.990618 -0.318901 35.451855 1.432494 -0.049300 19.032698 -1.776397 -5.014713 
0.000000 4.831345 0.000000 -90.001877 0.000000 0.000000 14.890022 0.011555 -0.088427 18.639112 -0.027132 -0.438745 14.758164 0.000000 0.000000 3.754728 0.000000 0.000000 9.529765 7.596290 -3.285331 -74.634399 -12.085163 -6.590870 -76.428467 8.529820 -6.403582 -45.408787 -4.657615 -28.183607 2.650561 -14.127558 -4.513202 70.062325 28.830072 -6.407697 79.743004 -10.564405 -6.196684 68.762848 3.713063 -12.280885 -132.334732 24.360010 0.542644 6.018428 -3.514625 0.044678 17.097088 2.323880 5.457081 -141.922714 -12.990616 -0.318902 35.005039 1.350412 -0.064868 19.032698 -1.776397 -5.014713 
0.000000 4.831345 0.000000 -90.001877 0.000000 0.000000 14.582049 0.011317 -0.088454 19.558256 -0.032351 -0.440286 14.487294 0.000000 0.000000 3.316059 0.000000 0.000000 9.466706 8.120720 -3.584852 -74.845444 -12.111852 -6.522443 -77.062485 8.701971 -6.298954 -45.016556 -5.053752 -28.383425 2.344621 -14.743780 -4.997804 70.378555 28.857809 -6.215978 80.094101 -10.483953 -6.132058 68.407806 4.037172 -12.333863 -132.122238 24.139397 0.495535 5.666846 -3.643257 0.059587 17.405043 2.324965 5.455095 -141.922729 -12.990618 -0.318902 34.558338 1.268225 -0.079791 19.032701 -1.776397 -5.014714 
0.000000 4.831345 0.000000 -90.001877 0.000000 0.000000 14.848960 0.011524 -0.088431 18.761702 -0.027829 -0.438946 14.216310 0.000000 0.000000 2.877188 0.000000 0.000000 9.521201 7.666204 -3.325285 -74.662544 -12.088737 -6.581753 -76.512970 8.552843 -6.389743 -45.356575 -4.710519 -28.210094 2.610118 -14.209885 -4.577558 70.104477 28.833828 -6.382151 79.789848 -10.553702 -6.188037 68.715546 3.756301 -12.287831 -132.306381 24.330589 0.536410 5.971551 -3.531782 0.046620 17.405043 2.324966 5.455095 -141.922729 -12.990618 -0.318902 34.945477 1.339459 -0.066895 19.032700 -1.776397 -5.014714 
0.000000 4.831345 0.000000 -90.001877 0.000000 0.000000 15.115889 0.011730 -0.088406 17.964655 -0.023286 -0.437668 13.945210 0.000000 0.000000 2.438132 0.000000 0.000000 9.577733 7.211813 -3.065479 -74.479660 -12.065433 -6.640981 -75.963760 8.402816 -6.479076 -45.695477 -4.366182 -28.038847 2.871085 -13.673871 -4.160638 69.830528 28.809141 -6.548156 79.485413 -10.623159 -6.244408 69.023003 3.475139 -12.243320 -132.490662 24.521898 0.576673 6.276228 -3.420228 0.034247 17.405043 2.324965 5.455095 -141.922729 -12.990618 -0.318902 35.332691 1.410616 -0.053514 19.032700 -1.776397 -5.014714 
0.000000 4.831345 0.000000 -90.001862 0.000000 0.000000 15.382834 0.011936 -0.088381 17.167177 -0.018723 -0.436452 13.673993 0.000000 0.000000 1.998900 0.000000 0.000000 9.636293 6.757572 -2.805412 -74.296814 -12.041945 -6.700133 -75.414833 8.251905 -6.566940 -46.033260 -4.020770 -27.869682 3.127561 -13.135825 -3.746997 69.556725 28.783770 -6.713993 79.180801 -10.692326 -6.301171 69.330208 3.193702 -12.200326 -132.675095 24.713354 0.616323 6.580871 -3.308599 0.022470 17.405043 2.324965 5.455095 -141.922729 -12.990618 -0.318902 35.719990 1.481689 -0.039651 19.032696 -1.776397 -5.014713 
0.000000 4.831345 0.000000 -90.001862 0.000000 0.000000 15.649786 0.012142 -0.088355 16.369356 -0.014142 -0.435300 13.402676 0.000000 0.000000 1.559507 0.000000 0.000000 9.696889 6.303513 -2.545063 -74.114006 -12.018273 -6.759202 -74.866234 8.100139 -6.653325 -46.369938 -3.674308 -27.702597 3.379581 -12.595819 -3.336581 69.283035 28.757689 -6.879661 78.876038 -10.761200 -6.358325 69.637146 2.912004 -12.158851 -132.859665 24.904926 0.655357 6.885479 -3.196902 0.011287 17.405043 2.324965 5.455095 -141.922729 -12.990618 -0.318902 36.107368 1.552676 -0.025305 19.032698 -1.776397 -5.014713 
0.000000 4.831345 0.000000 -90.001862 0.000000 0.000000 15.916754 0.012348 -0.088328 15.571260 -0.009543 -0.434211 13.131248 0.000000 0.000000 1.119964 0.000000 0.000000 9.759516 5.849663 -2.284413 -73.931229 -11.994412 -6.818187 -74.317986 7.947535 -6.738222 -46.705521 -3.326828 -27.537592 3.627182 -12.053937 -2.929339 69.009521 28.730925 -7.045146 78.571136 -10.829780 -6.415866 69.943840 2.630063 -12.118891 -133.044403 25.096624 0.693771 7.190050 -3.085141 0.000700 17.405043 2.324965 5.455095 -141.922729 -12.990618 -0.318902 36.494797 1.623569 -0.010478 19.032698 -1.776397 -5.014713 
